<?xml version="1.0" standalone="no"?>
<!DOCTYPE svg PUBLIC "-//W3C//DTD SVG 20010904//EN"
 "http://www.w3.org/TR/2001/REC-SVG-20010904/DTD/svg10.dtd">
<svg version="1.0" xmlns="http://www.w3.org/2000/svg"
 width="469.000000pt" height="469.000000pt" viewBox="0 0 469.000000 469.000000"
 preserveAspectRatio="xMidYMid meet">
<metadata>
Created by potrace 1.14, written by Peter Selinger 2001-2017
</metadata>
<g transform="translate(0.000000,469.000000) scale(0.100000,-0.100000)"
fill="#000000" stroke="none">
<path d="M938 4239 c-36 -14 -35 -32 2 -61 l31 -24 -208 -58 c-114 -33 -212
-63 -217 -67 -6 -5 -3 -16 7 -27 9 -10 17 -22 17 -26 0 -3 -60 -4 -132 0 -127
6 -134 6 -152 -14 -10 -12 -16 -28 -13 -36 5 -13 24 -14 119 -9 63 3 140 3
171 -1 57 -7 58 -8 111 -79 29 -40 51 -75 49 -79 -2 -5 -19 -8 -36 -8 -29 0
-35 -6 -62 -57 -29 -54 -33 -57 -92 -75 -48 -14 -69 -27 -90 -54 -16 -20 -61
-58 -100 -85 l-73 -49 -116 15 c-65 8 -119 14 -121 12 -7 -8 -16 -234 -10
-259 4 -13 29 -41 59 -62 81 -59 135 -132 223 -300 44 -85 87 -162 96 -173 9
-10 32 -45 51 -78 19 -33 53 -87 76 -119 47 -66 52 -100 22 -139 -34 -43 -26
-58 58 -114 175 -118 214 -154 263 -241 25 -45 54 -91 64 -102 15 -16 17 -30
11 -82 -3 -34 -8 -63 -10 -66 -3 -2 -33 3 -68 12 -101 24 -179 29 -274 17
-168 -23 -293 -81 -402 -188 -196 -194 -189 -465 20 -658 194 -180 523 -228
768 -112 36 17 68 33 73 35 4 2 7 -8 7 -22 l0 -26 105 0 105 0 0 160 c0 88 4
160 8 160 5 0 20 -13 35 -28 l28 -29 -3 -139 -3 -139 -72 -3 -73 -3 0 -109 0
-110 244 0 243 0 46 -35 c41 -31 53 -35 106 -35 l61 0 0 50 0 49 58 18 c31 9
91 17 132 18 70 0 79 -3 135 -37 l60 -38 168 0 c172 0 205 -6 236 -44 9 -11
30 -16 64 -16 48 0 53 3 102 53 45 46 98 136 119 200 6 19 89 60 218 108 64
23 95 29 163 29 233 0 688 93 1102 227 130 41 142 48 147 72 3 14 20 122 37
239 l30 213 -37 112 c-20 62 -38 115 -40 118 -2 4 -19 3 -38 -1 -31 -7 -582
41 -589 51 -2 2 -47 70 -100 151 -85 130 -102 150 -144 172 -90 45 -134 94
-177 195 -21 50 -42 94 -47 97 -15 9 -10 31 8 38 11 4 28 -4 50 -26 28 -27 42
-33 76 -33 96 0 147 84 155 252 2 56 2 113 -2 127 -18 71 -113 129 -234 142
-37 4 -65 14 -80 27 l-22 21 44 45 c57 59 76 99 76 156 0 63 -39 105 -99 105
l-41 0 77 68 c303 268 381 448 226 523 -44 21 -52 22 -122 11 -220 -32 -434
-132 -712 -331 -18 -13 -19 -9 -19 136 0 210 -27 292 -101 308 -107 24 -233
-133 -359 -446 -27 -68 -53 -124 -57 -124 -5 0 -51 21 -103 47 -52 25 -115 53
-140 62 -25 9 -142 87 -261 174 -150 110 -229 161 -261 169 -25 7 -65 29 -89
49 -24 21 -96 62 -159 91 -63 30 -155 75 -205 99 -96 47 -154 60 -197 43z
m1854 -268 c9 -24 13 -95 13 -221 l0 -185 -143 -142 -142 -141 -16 36 c-8 20
-33 60 -55 89 l-39 53 46 117 c138 352 289 528 336 394z m907 -76 c51 -26 53
-58 10 -144 -46 -93 -279 -318 -458 -443 -22 -15 -23 -20 -12 -46 l12 -29 68
28 c125 52 181 49 181 -11 0 -43 -81 -148 -114 -150 -5 0 -42 20 -82 45 -226
141 -440 121 -540 -51 -24 -42 -28 -44 -72 -45 -49 -1 -166 2 -168 4 0 1 4 37
10 80 l10 79 124 129 c286 298 577 481 877 549 100 23 119 24 154 5z m-1957
-292 c39 -35 8 -113 -45 -113 -58 0 -89 69 -50 112 20 22 70 23 95 1z m299
-17 c142 -31 303 -118 369 -201 65 -82 75 -111 75 -220 0 -143 -13 -167 -156
-290 -370 -318 -690 -499 -941 -534 -43 -6 -92 -8 -110 -5 -86 14 -90 7 74
129 158 118 191 134 363 176 146 36 315 137 467 278 68 62 88 96 88 145 0 49
-19 130 -35 152 -13 18 -16 16 -62 -27 -171 -164 -967 -792 -1104 -872 -60
-35 -189 -77 -237 -77 -23 0 -45 6 -52 15 -19 22 -16 308 4 422 34 193 101
346 208 475 l61 73 -52 -50 c-171 -165 -264 -398 -279 -700 l-7 -130 -24 60
c-107 274 18 561 366 839 55 44 114 89 131 98 l30 18 -16 -43 c-22 -60 -21
-181 1 -239 21 -53 87 -119 143 -143 142 -59 335 -3 479 138 150 149 203 345
130 482 l-24 45 22 0 c12 0 52 -7 88 -14z m1030 -396 l30 0 -26 -35 c-31 -40
-55 -113 -55 -167 0 -21 -3 -38 -7 -38 -3 0 -22 12 -41 27 l-35 26 6 -24 c16
-68 18 -101 7 -133 -16 -50 -61 -84 -120 -92 -35 -5 -51 -12 -55 -24 -3 -10
-24 -37 -45 -59 -48 -49 -84 -54 -124 -16 -37 34 -56 85 -63 164 -10 126 39
183 155 180 l64 -2 29 53 c35 64 52 84 96 111 33 21 116 40 141 33 8 -2 27 -4
43 -4z m279 -135 l70 -45 -40 -61 c-21 -33 -47 -81 -56 -107 -10 -26 -23 -50
-28 -54 -25 -18 -109 -8 -156 18 -43 23 -49 31 -56 67 -10 63 -8 160 5 200 7
20 26 48 42 62 l30 25 60 -31 c33 -16 91 -50 129 -74z m-1135 67 c11 -52 -10
-111 -56 -158 -24 -24 -46 -44 -50 -44 -3 0 -12 27 -19 60 l-13 60 59 55 c32
30 62 54 66 55 3 0 9 -13 13 -28z m-149 -239 c-6 -15 -144 -108 -151 -101 -3
2 -11 26 -19 52 l-14 47 76 64 77 65 18 -57 c10 -32 15 -63 13 -70z m1570 56
c28 -11 62 -31 75 -45 22 -24 24 -33 24 -127 -1 -57 -7 -120 -14 -142 -30 -90
-106 -125 -150 -69 -12 15 -21 33 -21 42 0 9 -6 12 -17 9 -10 -4 -46 -16 -80
-28 -72 -25 -98 -21 -142 20 -28 26 -30 32 -20 59 6 17 28 47 50 67 33 29 42
46 52 98 14 65 29 100 55 130 14 16 25 17 77 12 33 -4 83 -16 111 -26z m-1771
-151 c7 -35 5 -37 -33 -57 -42 -21 -183 -64 -190 -57 -2 2 43 43 99 90 109 91
111 92 124 24z m1262 -231 c48 -66 66 -134 61 -225 -8 -132 -78 -237 -197
-294 -122 -60 -270 -40 -371 50 -19 16 -43 44 -53 60 l-17 31 57 6 c108 11
202 37 261 71 98 59 173 162 200 273 9 39 19 71 22 71 4 0 20 -19 37 -43z
m-1403 -286 c7 -43 -6 -96 -17 -69 -4 13 -32 17 -134 24 l-128 7 50 23 c61 28
149 52 191 53 29 1 32 -2 38 -38z m-377 -111 c-9 -24 -8 -44 6 -98 24 -92 22
-109 -14 -143 -26 -24 -30 -34 -25 -59 5 -27 3 -29 -12 -21 -50 27 -92 104
-92 168 0 21 9 56 19 78 21 46 83 105 110 105 17 0 18 -3 8 -30z m242 20 c41
-6 76 -12 79 -15 12 -11 -19 -55 -43 -61 -19 -5 -24 -11 -19 -23 24 -58 9 -91
-43 -91 -29 0 -29 -5 2 -42 31 -37 32 -68 1 -97 -48 -45 -149 -47 -198 -4 -17
15 -16 18 12 50 24 27 30 43 30 82 0 26 -7 69 -16 95 -13 37 -14 53 -5 72 19
44 65 51 200 34z m1091 -427 c86 -41 157 -56 255 -56 141 1 260 44 354 129 29
26 55 44 58 40 16 -16 15 -118 -2 -162 -55 -145 -292 -255 -520 -241 -301 18
-479 218 -359 403 l26 40 61 -61 c40 -40 85 -72 127 -92z m-1767 -78 c38 -15
95 -47 128 -71 32 -24 61 -44 64 -44 3 0 5 34 5 75 l0 75 65 0 65 0 0 -135 0
-135 -73 0 c-59 0 -77 4 -91 19 -28 31 -171 92 -257 109 -279 54 -555 -142
-509 -363 22 -104 110 -199 229 -245 68 -27 231 -38 310 -21 73 16 150 54 205
102 46 40 47 43 44 93 l-3 51 -55 0 -55 0 -3 -52 -3 -53 -50 0 -49 0 0 120 0
120 560 0 560 0 0 -120 0 -120 -55 0 -55 0 0 55 0 55 -177 -2 -178 -3 -3 -232
-2 -233 70 0 70 0 0 -70 0 -70 -215 0 -215 0 0 70 0 70 70 0 70 0 -2 233 -3
232 -70 0 -70 0 -3 -177 -2 -178 -65 0 -65 0 0 46 0 46 -39 -31 c-60 -48 -162
-91 -253 -107 -207 -38 -430 24 -572 156 -185 174 -190 419 -12 595 80 79 213
147 326 169 14 2 86 3 160 2 122 -2 142 -5 203 -31z m-68 -157 c94 -20 152
-52 174 -97 12 -22 21 -42 21 -45 0 -3 -46 -7 -102 -8 l-103 -3 -3 -162 -2
-163 72 0 c67 -1 71 -2 53 -16 -38 -28 -144 -54 -224 -54 -217 0 -381 122
-381 281 1 72 26 125 89 181 101 91 244 121 406 86z m1728 -347 c18 -5 45 -12
60 -15 l28 -7 -48 -40 c-48 -40 -179 -132 -262 -184 l-45 -27 46 63 c50 70
108 174 126 227 l12 34 25 -21 c15 -11 41 -24 58 -30z m-1513 -49 c0 -19 -18
-42 -32 -42 -4 0 -8 14 -8 30 0 23 4 30 20 30 13 0 20 -7 20 -18z"/>
</g>
</svg>
